<mxfile host="app.diagrams.net" modified="2023-04-18T00:35:33.876Z" agent="Mozilla/5.0 (Windows NT 10.0; Win64; x64; rv:109.0) Gecko/20100101 Firefox/112.0" etag="TjRLh4gFQfmvM-q3Avdm" version="21.1.8" type="github">
  <diagram name="Page-1" id="vrA9PL0npLH-3c56ybNk">
    <mxGraphModel dx="1434" dy="703" grid="1" gridSize="10" guides="1" tooltips="1" connect="1" arrows="1" fold="1" page="1" pageScale="1" pageWidth="850" pageHeight="1100" math="0" shadow="0">
      <root>
        <mxCell id="0" />
        <mxCell id="1" parent="0" />
        <mxCell id="bXJ8WaDDgky8bag2XriR-1" value="&lt;font style=&quot;font-size: 24px;&quot;&gt;Generate!&lt;/font&gt;" style="rounded=0;whiteSpace=wrap;html=1;" parent="1" vertex="1">
          <mxGeometry x="340" y="330" width="160" height="40" as="geometry" />
        </mxCell>
        <mxCell id="bXJ8WaDDgky8bag2XriR-2" value="&lt;font style=&quot;font-size: 24px;&quot;&gt;Create!&lt;/font&gt;" style="rounded=0;whiteSpace=wrap;html=1;" parent="1" vertex="1">
          <mxGeometry x="370" y="400" width="100" height="50" as="geometry" />
        </mxCell>
        <mxCell id="bXJ8WaDDgky8bag2XriR-3" value="&lt;font style=&quot;font-size: 36px;&quot;&gt;Dad Jokes!&lt;br&gt;&lt;/font&gt;" style="rounded=0;whiteSpace=wrap;html=1;" parent="1" vertex="1">
          <mxGeometry x="240" y="20" width="360" height="60" as="geometry" />
        </mxCell>
        <mxCell id="bXJ8WaDDgky8bag2XriR-4" value="Actor" style="shape=umlActor;verticalLabelPosition=bottom;verticalAlign=top;html=1;outlineConnect=0;rotation=-45;direction=east;" parent="1" vertex="1">
          <mxGeometry x="149.5" y="309.5" width="100" height="200" as="geometry" />
        </mxCell>
        <mxCell id="bXJ8WaDDgky8bag2XriR-7" value="&lt;font style=&quot;font-size: 24px;&quot;&gt;Sign In&lt;/font&gt;" style="rounded=0;whiteSpace=wrap;html=1;" parent="1" vertex="1">
          <mxGeometry x="40" y="20" width="120" height="60" as="geometry" />
        </mxCell>
        <mxCell id="bXJ8WaDDgky8bag2XriR-8" value="Actor" style="shape=umlActor;verticalLabelPosition=bottom;verticalAlign=top;html=1;outlineConnect=0;rotation=-45;direction=south;" parent="1" vertex="1">
          <mxGeometry x="580" y="359.5" width="200" height="100" as="geometry" />
        </mxCell>
        <mxCell id="bXJ8WaDDgky8bag2XriR-9" value="" style="triangle;whiteSpace=wrap;html=1;direction=north;" parent="1" vertex="1">
          <mxGeometry x="530" y="340" width="30" height="20" as="geometry" />
        </mxCell>
        <mxCell id="bXJ8WaDDgky8bag2XriR-10" value="" style="triangle;whiteSpace=wrap;html=1;direction=south;" parent="1" vertex="1">
          <mxGeometry x="570" y="340" width="30" height="20" as="geometry" />
        </mxCell>
        <mxCell id="bXJ8WaDDgky8bag2XriR-11" value="" style="verticalLabelPosition=bottom;verticalAlign=top;html=1;shape=mxgraph.basic.star" parent="1" vertex="1">
          <mxGeometry x="610" y="335" width="30" height="25" as="geometry" />
        </mxCell>
        <mxCell id="82NW4urMbOXXMYo1FL_H-2" value="" style="shape=flexArrow;endArrow=classic;html=1;rounded=0;width=28;endSize=5.79;" edge="1" parent="1" target="82NW4urMbOXXMYo1FL_H-3">
          <mxGeometry width="50" height="50" relative="1" as="geometry">
            <mxPoint x="100" y="90" as="sourcePoint" />
            <mxPoint x="100" y="140" as="targetPoint" />
          </mxGeometry>
        </mxCell>
        <mxCell id="82NW4urMbOXXMYo1FL_H-3" value="&lt;font style=&quot;font-size: 24px;&quot;&gt;My Jokes&lt;/font&gt;" style="rounded=0;whiteSpace=wrap;html=1;" vertex="1" parent="1">
          <mxGeometry x="40" y="150" width="120" height="60" as="geometry" />
        </mxCell>
        <mxCell id="82NW4urMbOXXMYo1FL_H-4" value="&lt;font style=&quot;font-size: 24px;&quot;&gt;Bookmarked Jokes&lt;/font&gt;" style="rounded=0;whiteSpace=wrap;html=1;" vertex="1" parent="1">
          <mxGeometry x="660" y="20" width="170" height="60" as="geometry" />
        </mxCell>
      </root>
    </mxGraphModel>
  </diagram>
</mxfile>
